<?xml version="1.0" encoding="utf-8"?>
<!-- Generator: Adobe Illustrator 26.0.0, SVG Export Plug-In . SVG Version: 6.00 Build 0)  -->
<svg version="1.1" id="Layer_1" xmlns="http://www.w3.org/2000/svg" xmlns:xlink="http://www.w3.org/1999/xlink" x="0px" y="0px"
	 viewBox="0 0 1950.2 1097" style="enable-background:new 0 0 1950.2 1097;" xml:space="preserve">
<style type="text/css">
	.st0{fill:#3070BA;}
	.st1{fill:#FF004D;}
	.st2{fill:none;}
</style>
<g>
	<path class="st0" d="M630.4,219.4c0,242.8-196.8,439.6-439.6,439.6C122.5,659,57.7,643.4,0,615.5V0h571.9
		C609.1,64.6,630.4,139.5,630.4,219.4z"/>
	<path class="st0" d="M1950.2,973.1V1097H1740C1793,1034.3,1866.5,989.5,1950.2,973.1z"/>
	<path class="st1" d="M525.2,1097H0v-72.4c62.6-49.5,141.8-79.1,227.8-79.1C350.1,945.5,458.4,1005.2,525.2,1097z"/>
	<path class="st1" d="M1950.2,0v420.2c-72.1,31-151.6,48.2-235.1,48.2c-285.3,0-523.8-200.5-582.2-468.4H1950.2z"/>
</g>
<rect x="0" y="0" class="st2" width="1950.2" height="1097"/>
</svg>
