<svg xmlns="http://www.w3.org/2000/svg" xmlns:xlink="http://www.w3.org/1999/xlink" viewBox="0 0 847.96 911.86"><defs><style>.cls-1{fill:url(#linear-gradient);}.cls-2{fill:url(#linear-gradient-2);}.cls-3{fill:url(#linear-gradient-3);}.cls-4{fill:url(#linear-gradient-4);}</style><linearGradient id="linear-gradient" x1="900.44" y1="688.02" x2="137.55" y2="793.72" gradientUnits="userSpaceOnUse"><stop offset="0" stop-color="#1773b5"/><stop offset="1" stop-color="#e70145"/></linearGradient><linearGradient id="linear-gradient-2" x1="-208.02" y1="376.76" x2="421.6" y2="698.46" gradientUnits="userSpaceOnUse"><stop offset="0" stop-color="#ec5647"/><stop offset="1" stop-color="#db3f9c"/></linearGradient><linearGradient id="linear-gradient-3" x1="-242.1" y1="575.1" x2="732.19" y2="87.95" xlink:href="#linear-gradient"/><linearGradient id="linear-gradient-4" x1="443.39" y1="251.19" x2="834.03" y2="140.89" xlink:href="#linear-gradient-2"/></defs><g id="Layer_2" data-name="Layer 2"><g id="Layer_1-2" data-name="Layer 1"><path class="cls-1" d="M848,689.08C773.7,823.78,626.9,911.86,457.66,911.86c-169.55,0-311-82.85-389.9-210.86,190.1,8.16,316.77-56.22,316.77-56.22a210.09,210.09,0,0,0,69.67,11.48c76,0,139.89-36.26,167.52-96.71Z"/><path class="cls-2" d="M384.53,644.78S257.86,709.16,67.76,701C24.47,630.81,0,547.05,0,455.93A479.1,479.1,0,0,1,22,311C80.4,535.08,299.69,585.6,301.46,586h0A181.55,181.55,0,0,0,384.53,644.78Z"/><path class="cls-3" d="M260.61,428.12a244.84,244.84,0,0,0-1.56,27.81c0,51.68,15.6,96.21,42.41,130.08C299.69,585.6,80.4,535.08,22,311,80,127.69,247.17,0,457.66,0A464.4,464.4,0,0,1,650.11,41.35C265.54,171.45,260.61,428.12,260.61,428.12Z"/><path class="cls-4" d="M848,221.06,621.72,352.31c-29.36-60.45-91.53-96.71-167.52-96.71-103.28,0-181.72,68.72-193.59,172.52,0,0,4.93-256.67,389.5-386.77C734.37,79.67,804.11,142.54,848,221.06Z"/></g></g></svg>