<svg xmlns="http://www.w3.org/2000/svg" width="18.104" height="18.1" viewBox="0 0 18.104 18.1">
  <path id="ig" d="M8.979,36.234a4.64,4.64,0,1,0,4.64,4.64A4.633,4.633,0,0,0,8.979,36.234Zm0,7.657A3.017,3.017,0,1,1,12,40.875,3.022,3.022,0,0,1,8.979,43.892Zm5.913-7.847a1.082,1.082,0,1,1-1.082-1.082A1.08,1.08,0,0,1,14.891,36.044Zm3.073,1.1A5.356,5.356,0,0,0,16.5,33.351a5.392,5.392,0,0,0-3.792-1.462c-1.494-.085-5.973-.085-7.468,0a5.384,5.384,0,0,0-3.792,1.458A5.374,5.374,0,0,0-.011,37.139c-.085,1.494-.085,5.973,0,7.468A5.356,5.356,0,0,0,1.451,48.4a5.4,5.4,0,0,0,3.792,1.462c1.494.085,5.973.085,7.468,0A5.356,5.356,0,0,0,16.5,48.4a5.392,5.392,0,0,0,1.462-3.792C18.05,43.112,18.05,38.637,17.965,37.143ZM16.034,46.21a3.054,3.054,0,0,1-1.72,1.72c-1.191.473-4.019.363-5.335.363s-4.148.105-5.335-.363a3.054,3.054,0,0,1-1.72-1.72c-.473-1.191-.363-4.019-.363-5.335s-.105-4.148.363-5.335a3.054,3.054,0,0,1,1.72-1.72c1.191-.473,4.019-.363,5.335-.363s4.148-.105,5.335.363a3.054,3.054,0,0,1,1.72,1.72c.473,1.191.363,4.019.363,5.335S16.507,45.022,16.034,46.21Z" transform="translate(0.075 -31.825)" fill="#fff"/>
</svg>
