<svg xmlns="http://www.w3.org/2000/svg" width="18.1" height="18.099" viewBox="0 0 18.1 18.099">
  <path id="link" d="M16.807,32H1.289A1.3,1.3,0,0,0,0,33.3v15.49a1.3,1.3,0,0,0,1.289,1.3H16.807a1.3,1.3,0,0,0,1.293-1.3V33.3A1.3,1.3,0,0,0,16.807,32ZM5.47,47.514H2.788V38.876H5.474v8.638ZM4.129,37.7a1.555,1.555,0,1,1,1.555-1.555A1.556,1.556,0,0,1,4.129,37.7Zm11.4,9.817H12.843v-4.2c0-1-.02-2.291-1.394-2.291-1.4,0-1.612,1.091-1.612,2.218v4.274H7.155V38.876H9.728v1.18h.036a2.825,2.825,0,0,1,2.541-1.394c2.715,0,3.22,1.79,3.22,4.117Z" transform="translate(0 -32)" fill="#fff"/>
</svg>
