<svg xmlns="http://www.w3.org/2000/svg" width="19.621" height="15.936" viewBox="0 0 19.621 15.936">
  <path id="twitter" d="M17.6,52.054c.012.174.012.349.012.523A11.363,11.363,0,0,1,6.175,64.018,11.364,11.364,0,0,1,0,62.213a8.318,8.318,0,0,0,.971.05,8.054,8.054,0,0,0,4.993-1.718A4.029,4.029,0,0,1,2.2,57.756a5.071,5.071,0,0,0,.759.062,4.253,4.253,0,0,0,1.058-.137A4.022,4.022,0,0,1,.8,53.734v-.05a4.05,4.05,0,0,0,1.818.51,4.027,4.027,0,0,1-1.245-5.378,11.431,11.431,0,0,0,8.292,4.208,4.54,4.54,0,0,1-.1-.921,4.025,4.025,0,0,1,6.96-2.751,7.917,7.917,0,0,0,2.552-.971A4.011,4.011,0,0,1,17.306,50.6a8.061,8.061,0,0,0,2.316-.622A8.645,8.645,0,0,1,17.6,52.054Z" transform="translate(0 -48.082)" fill="#fff"/>
</svg>
